<?xml version="1.0" encoding="UTF-8"?>
<svg version="1.1" xmlns="http://www.w3.org/2000/svg" width="599" height="600">
<path d="M0 0 C9.48763705 11.09951517 11.63620049 23.85291024 11 38 C9.29428324 54.49671778 0.03561044 66.80642283 -10.87890625 78.62890625 C-13.82168354 81.91853021 -16.44105788 85.40744597 -19 89 C-18.38125 88.505 -17.7625 88.01 -17.125 87.5 C-15 86 -15 86 -13 86 C-12.505 84.515 -12.505 84.515 -12 83 C-11.34 83 -10.68 83 -10 83 C-10 82.34 -10 81.68 -10 81 C-8.125 78.875 -8.125 78.875 -6 77 C-5.34 77 -4.68 77 -4 77 C-3.62488281 76.17435547 -3.62488281 76.17435547 -3.2421875 75.33203125 C-1.77107235 72.57022074 -0.00180345 70.19108498 1.875 67.6875 C8.00502469 59.28914487 11.18463108 52.09048153 14 42 C14.22945312 41.18273437 14.45890625 40.36546875 14.6953125 39.5234375 C15.57953317 36.19826961 16 33.47047354 16 30 C15.01 30.33 14.02 30.66 13 31 C12.133642 27.92042493 11.70235107 25.19732558 12 22 C13.93951442 18.61854291 16.32392721 15.82288975 19 13 C19.99 13.33 20.98 13.66 22 14 C27.80148166 28.78155289 23.91642117 45.11864883 18.0625 59.265625 C9.70823433 76.94882066 -4.62415807 90.72469252 -20.125 102.1875 C-20.77678223 102.66960937 -21.42856445 103.15171875 -22.10009766 103.6484375 C-26.7428963 107 -26.7428963 107 -29 107 C-29.495 108.485 -29.495 108.485 -30 110 C-30.66 110 -31.32 110 -32 110 C-32.495 111.485 -32.495 111.485 -33 113 C-33.66 113 -34.32 113 -35 113 C-41.19539316 124.63656454 -41.2695031 137.0469876 -38.12890625 149.609375 C-36.42694809 154.72113861 -34.05231882 159.35324104 -31.5234375 164.1015625 C-30 167 -30 167 -29 170 C-28.01 170.33 -27.02 170.66 -26 171 C-24.29413425 172.62652316 -22.6222454 174.29006566 -21 176 C-20.34 173.03 -19.68 170.06 -19 167 C-16.36 167 -13.72 167 -11 167 C-11.645477 174.90709331 -13.86997139 182.39133967 -16 190 C-24.51166824 188.61073921 -32.0573508 179.62654195 -37 173 C-41.20556343 166.70157363 -45.00307154 160.23694594 -46.75 152.8125 C-48.56916207 148.71938534 -51.02063924 147.91598851 -55 146 C-55 145.34 -55 144.68 -55 144 C-55.99 143.67 -56.98 143.34 -58 143 C-59.90234375 141.03125 -59.90234375 141.03125 -61.9375 138.5 C-62.60652344 137.6853125 -63.27554688 136.870625 -63.96484375 136.03125 C-69.62323139 127.603402 -70.55692932 120.65099802 -70.5625 110.5625 C-70.48702265 96.28402751 -70.48702265 96.28402751 -76.3125 83.5625 C-81.86585697 78.26743871 -87.49801769 76.98840497 -95 77 C-99.01082823 77.5092008 -102.30772654 78.55946234 -105.75 80.75 C-108 82 -108 82 -110.125 81.4375 C-112.2005893 79.84621487 -113.47322538 78.10901918 -115 76 C-114.44570312 75.45730469 -113.89140625 74.91460937 -113.3203125 74.35546875 C-112.59585938 73.64003906 -111.87140625 72.92460937 -111.125 72.1875 C-110.40570313 71.47980469 -109.68640625 70.77210938 -108.9453125 70.04296875 C-106.84641063 67.95600806 -106.84641063 67.95600806 -105 65 C-104.34 65 -103.68 65 -103 65 C-102.73832031 64.4328125 -102.47664062 63.865625 -102.20703125 63.28125 C-98.48883078 56.25397144 -93.1878209 49.55104478 -85.625 46.75 C-76.78828165 44.92171344 -69.84122478 46.92893522 -62 51 C-62 51.66 -62 52.32 -62 53 C-61.43796875 53.22429687 -60.8759375 53.44859375 -60.296875 53.6796875 C-57.32724583 55.38671923 -55.49655833 57.54806544 -53.25 60.125 C-52.45078125 61.03507812 -51.6515625 61.94515625 -50.828125 62.8828125 C-50.22484375 63.58148438 -49.6215625 64.28015625 -49 65 C-48.5875 63.80246094 -48.175 62.60492188 -47.75 61.37109375 C-41.45829119 43.47003621 -22.88660136 0 0 0 Z M-18.03515625 24.01953125 C-34.62759252 42.02408976 -44.8026313 68.51974537 -44 93 C-44.66 93 -45.32 93 -46 93 C-46.350625 91.80375 -46.70125 90.6075 -47.0625 89.375 C-51.60671746 75.95370657 -58.3007829 64.39527153 -70 56 C-74.70984263 54.19026947 -78.77476963 53.70926737 -83.6875 54.875 C-88.71460793 58.09993716 -93.08234752 62.24704256 -95 68 C-94.24976563 68.08636719 -93.49953125 68.17273438 -92.7265625 68.26171875 C-83.94170746 69.46770011 -76.64331525 71.51508976 -70.125 77.75 C-65.65304605 84.58945898 -62.88130616 91.22959054 -62.89453125 99.4375 C-63.02243623 116.20959425 -63.02243623 116.20959425 -56 131 C-55.44054687 131.74507813 -54.88109375 132.49015625 -54.3046875 133.2578125 C-52.58250484 135.44170182 -52.58250484 135.44170182 -50 138 C-49.67 138 -49.34 138 -49 138 C-48.96132812 136.72769531 -48.96132812 136.72769531 -48.921875 135.4296875 C-47.76274122 111.45669348 -36.99665363 95.64490628 -21.26953125 78.5859375 C-18.11303795 74.98938231 -15.23064703 71.20408639 -12.36108398 67.37670898 C-9.23516086 63.22049996 -9.23516086 63.22049996 -7.43359375 61.53125 C-0.3107842 53.92323544 2.87087942 42.09394082 3.25 31.9375 C2.74845886 24.038227 0.78271518 17.93497783 -3 11 C-7.18093399 11 -15.02876538 21.03622208 -18.03515625 24.01953125 Z " fill="#FBFCFC" transform="translate(271,112)"/>
<path d="M0 0 C29.04 0 58.08 0 88 0 C88 2.97 88 5.94 88 9 C62.26 9 36.52 9 10 9 C10 51.57 10 94.14 10 138 C6.7 138 3.4 138 0 138 C0 92.46 0 46.92 0 0 Z " fill="#FBFCFC" transform="translate(310,265)"/>
<path d="M0 0 C3.3 0 6.6 0 10 0 C10 42.24 10 84.48 10 128 C30.46 128 50.92 128 72 128 C72 130.97 72 133.94 72 137 C69.12806507 138.43596747 66.66442338 138.12729859 63.45483398 138.12939453 C62.44731079 138.13202301 62.44731079 138.13202301 61.41943359 138.13470459 C59.19496085 138.13911291 56.97056733 138.13618904 54.74609375 138.1328125 C53.20435063 138.13348575 51.66260762 138.13445596 50.12086487 138.13571167 C46.88859039 138.13718719 43.65634353 138.13503845 40.42407227 138.13037109 C36.27201106 138.12466911 32.12001443 138.12795669 27.96795559 138.13394356 C24.78448496 138.13754902 21.60102975 138.13641074 18.41755867 138.13381577 C16.88607844 138.1331467 15.35459683 138.13397421 13.82311821 138.13629532 C11.68729794 138.13882212 9.5515838 138.13498112 7.41577148 138.12939453 C6.19824692 138.12859894 4.98072235 138.12780334 3.7263031 138.12698364 C1 138 1 138 0 137 C-0.09634459 135.22839682 -0.12187481 133.45291592 -0.12025452 131.67869568 C-0.12162918 130.52458191 -0.12300385 129.37046814 -0.12442017 128.18138123 C-0.12082489 126.90392532 -0.11722961 125.62646942 -0.11352539 124.31030273 C-0.11324352 122.96041872 -0.11340125 121.61053456 -0.1139679 120.26065063 C-0.11425587 116.58519392 -0.10835916 112.90976957 -0.10139394 109.2343204 C-0.09516038 105.39726851 -0.0945566 101.56021596 -0.09336853 97.72315979 C-0.09025522 90.45228782 -0.08204183 83.18143081 -0.07201904 75.91056544 C-0.0608579 67.63500648 -0.05534745 59.35944682 -0.05032361 51.08388221 C-0.03985922 34.05591281 -0.02225978 17.02795798 0 0 Z " fill="#FAFBFC" transform="translate(310,117)"/>
<path d="M0 0 C20.13 0 40.26 0 61 0 C61 50.49 61 100.98 61 153 C58.03 153 55.06 153 52 153 C50.6715079 150.3430158 50.87712074 148.3450849 50.87974548 145.36862183 C50.87837082 144.17106262 50.87699615 142.97350342 50.87557983 141.73965454 C50.87911919 140.40570044 50.882754 139.07174658 50.88647461 137.73779297 C50.88675656 136.338501 50.88659858 134.93920888 50.8860321 133.53991699 C50.88574446 129.73435878 50.89163594 125.92883191 50.89860606 122.123281 C50.904845 118.14876812 50.90544383 114.17425457 50.90663147 110.19973755 C50.90974319 102.67036256 50.91795444 95.14100203 50.92798096 87.61163342 C50.93914703 79.04101449 50.9446538 70.47039489 50.94967639 61.8997705 C50.96013717 44.26650545 50.97773354 26.63325389 51 9 C50.43481155 9.01332367 49.86962311 9.02664734 49.28730774 9.04037476 C43.3988829 9.17323056 37.51088435 9.26365716 31.62133789 9.32958984 C29.42422185 9.35974284 27.22722599 9.40067263 25.03051758 9.45263672 C21.87030388 9.52551526 18.71168259 9.55947147 15.55078125 9.5859375 C14.57039383 9.61690521 13.59000641 9.64787292 12.57991028 9.67977905 C5.94861688 9.68304354 5.94861688 9.68304354 3.2359314 7.72979736 C0.93875194 5.13041695 0 3.49364605 0 0 Z " fill="#FDFDFD" transform="translate(240,265)"/>
<path d="M0 0 C0.33 0 0.66 0 1 0 C1 33 1 66 1 100 C-20.45 100 -41.9 100 -64 100 C-66 94 -66 94 -66 90 C-47.19 90 -28.38 90 -9 90 C-9.10441406 85.26269531 -9.20882812 80.52539062 -9.31640625 75.64453125 C-9.36253629 72.59558834 -9.40586751 69.54709156 -9.43945312 66.49804688 C-9.4927167 61.68582924 -9.55484163 56.87518927 -9.67895508 52.06420898 C-10.16159182 32.8687161 -9.99646486 17.10406031 0 0 Z " fill="#FCFBFC" transform="translate(300,155)"/>
<path d="M0 0 C3.44742042 2.27216346 5.52300758 4.15237268 7 8 C7.22705078 11.02441406 7.22705078 11.02441406 7.1953125 14.515625 C7.18886719 15.76601563 7.18242187 17.01640625 7.17578125 18.3046875 C7.15902344 19.60664063 7.14226562 20.90859375 7.125 22.25 C7.11597656 23.56742187 7.10695312 24.88484375 7.09765625 26.2421875 C7.07408533 29.49497462 7.04118022 32.74739589 7 36 C5.25 36.6875 5.25 36.6875 3 37 C0.77441406 35.97729492 0.77441406 35.97729492 -1 34 C-1.45410156 30.99731445 -1.45410156 30.99731445 -1.390625 27.36328125 C-1.37773437 26.06455078 -1.36484375 24.76582031 -1.3515625 23.42773438 C-1.31814101 22.05597897 -1.28428123 20.68423419 -1.25 19.3125 C-1.22993376 17.92906188 -1.21168319 16.54559616 -1.1953125 15.16210938 C-1.14809207 11.77404351 -1.08224069 8.38736759 -1 5 C-3.31 5 -5.62 5 -8 5 C-7.97905273 5.86278564 -7.95810547 6.72557129 -7.93652344 7.61450195 C-7.86832098 10.8180751 -7.81818686 14.02127816 -7.78027344 17.2253418 C-7.76016725 18.61153338 -7.73287755 19.99764025 -7.69824219 21.38354492 C-7.64968775 23.37641906 -7.62916028 25.36991389 -7.609375 27.36328125 C-7.58842773 28.56251221 -7.56748047 29.76174316 -7.54589844 30.99731445 C-8 34 -8 34 -9.77441406 35.97729492 C-12 37 -12 37 -14.25 36.6875 C-14.8275 36.460625 -15.405 36.23375 -16 36 C-16.11647041 31.45855006 -16.18734502 26.91748606 -16.25 22.375 C-16.28351563 21.08980469 -16.31703125 19.80460937 -16.3515625 18.48046875 C-16.47471891 6.59587556 -16.47471891 6.59587556 -12 2 C-7.70068048 -0.8973675 -4.9684016 -1.58566009 0 0 Z " fill="#F9FAFB" transform="translate(181,452)"/>
<path d="M0 0 C5.875 0.875 5.875 0.875 7 2 C7.15858842 4.14386657 7.25129298 6.29266838 7.31640625 8.44140625 C7.35830078 9.74658203 7.40019531 11.05175781 7.44335938 12.39648438 C7.48317608 13.7851533 7.52288825 15.17382522 7.5625 16.5625 C7.60567989 17.95509183 7.649294 19.34767028 7.69335938 20.74023438 C7.79985876 24.16004801 7.90186923 27.57993763 8 31 C9.98 31.33 11.96 31.66 14 32 C14.01458252 31.10168457 14.02916504 30.20336914 14.04418945 29.27783203 C14.10519697 25.9489341 14.17933628 22.62087117 14.26245117 19.29248047 C14.29573178 17.85118658 14.32375404 16.40976137 14.34643555 14.96826172 C14.3799262 12.89754203 14.432233 10.82802907 14.48828125 8.7578125 C14.51446533 7.5114502 14.54064941 6.26508789 14.56762695 4.98095703 C14.78165161 3.5053833 14.78165161 3.5053833 15 2 C18 0 18 0 22 0 C22.12400035 4.32322461 22.21452256 8.64549602 22.2746582 12.9699707 C22.29973644 14.43955525 22.33380856 15.90901587 22.37719727 17.37817383 C22.43815499 19.49591681 22.46627316 21.61200576 22.48828125 23.73046875 C22.51446533 25.00301514 22.54064941 26.27556152 22.56762695 27.58666992 C21.74465669 32.53546443 19.02997254 34.51135347 15.125 37.375 C11.75019879 38.36758859 9.37754007 37.88882633 6 37 C3.41702219 34.81008403 1.51584156 33.03168312 0 30 C-0.08573394 27.74879258 -0.10712188 25.49500697 -0.09765625 23.2421875 C-0.0962413 22.57913605 -0.09482635 21.91608459 -0.09336853 21.23294067 C-0.08776754 19.11358137 -0.075215 16.99432741 -0.0625 14.875 C-0.05748512 13.43880361 -0.05292219 12.00260556 -0.04882812 10.56640625 C-0.03779782 7.04423655 -0.02053259 3.52212855 0 0 Z " fill="#FCFCFD" transform="translate(241,451)"/>
<path d="M0 0 C2.44422699 1.62474999 4.17457617 2.78551907 6 5 C6.68115234 8.50512695 6.68115234 8.50512695 6.5859375 12.48828125 C6.57744781 13.19147995 6.56895813 13.89467865 6.56021118 14.6191864 C6.52678324 16.85189045 6.45154502 19.08089979 6.375 21.3125 C6.34488573 22.8313278 6.31751245 24.35021259 6.29296875 25.86914062 C6.22703363 29.58061534 6.1235945 33.28994673 6 37 C3.625 36.75 3.625 36.75 1 36 C-1.46868148 32.82397336 -1.30750398 29.39152075 -1.4140625 25.484375 C-1.45273437 24.23398437 -1.49140625 22.98359375 -1.53125 21.6953125 C-1.5621875 20.39335937 -1.593125 19.09140625 -1.625 17.75 C-1.66367187 16.43257813 -1.70234375 15.11515625 -1.7421875 13.7578125 C-1.83646182 10.50534839 -1.9220675 7.25289004 -2 4 C-3.65 4.66 -5.3 5.32 -7 6 C-7.03758423 7.20329956 -7.03758423 7.20329956 -7.07592773 8.4309082 C-7.19182043 12.05827074 -7.31457751 15.68536917 -7.4375 19.3125 C-7.47681641 20.57513672 -7.51613281 21.83777344 -7.55664062 23.13867188 C-7.59853516 24.34716797 -7.64042969 25.55566406 -7.68359375 26.80078125 C-7.73858032 28.47394409 -7.73858032 28.47394409 -7.79467773 30.1809082 C-8 33 -8 33 -9 36 C-11.97 36.495 -11.97 36.495 -15 37 C-15.07441989 32.81912848 -15.12872818 28.6386127 -15.16479492 24.45727539 C-15.1798376 23.03630859 -15.20027704 21.61538787 -15.22631836 20.19458008 C-15.26290347 18.14653114 -15.27977097 16.0990985 -15.29296875 14.05078125 C-15.3086792 12.82012939 -15.32438965 11.58947754 -15.34057617 10.3215332 C-14.96897201 6.69739366 -14.19138925 4.87763076 -12 2 C-7.70020002 -0.86653332 -4.94246236 -1.64748745 0 0 Z " fill="#FBFBFC" transform="translate(356,452)"/>
<path d="M0 0 C5.875 0.875 5.875 0.875 7 2 C7.04080783 3.99958364 7.04254356 6.00045254 7 8 C8.010625 7.9175 9.02125 7.835 10.0625 7.75 C15.07167507 8.06804286 16.98706213 9.00996786 21 12 C22.4375 15.25 22.4375 15.25 23 18 C17.375 18.25 17.375 18.25 14 16 C14 15.34 14 14.68 14 14 C11.69 13.67 9.38 13.34 7 13 C7.11426509 15.41760876 7.24099661 17.83347218 7.375 20.25 C7.4059375 20.93191406 7.436875 21.61382812 7.46875 22.31640625 C7.68259374 25.98739038 8.01077055 28.86251616 10 32 C11.32 32 12.64 32 14 32 C14.1546875 30.1128125 14.1546875 30.1128125 14.3125 28.1875 C14.64388425 25.58705417 14.85928753 24.21441901 16.3125 22 C18 21 18 21 22 21 C22.7826087 29.95652174 22.7826087 29.95652174 19.75 34 C18.8425 34.66 17.935 35.32 17 36 C16.38125 36.45375 15.7625 36.9075 15.125 37.375 C11.70455379 38.38101359 9.41501052 37.95859944 6 37 C3.4096489 34.72764597 1.54438366 32.08876733 0 29 C-0.08559118 26.82175039 -0.10713412 24.64084745 -0.09765625 22.4609375 C-0.09443359 21.15898437 -0.09121094 19.85703125 -0.08789062 18.515625 C-0.07953466 17.13541601 -0.07106971 15.75520768 -0.0625 14.375 C-0.05748501 12.98698074 -0.0529221 11.59895978 -0.04882812 10.2109375 C-0.03700976 6.80724868 -0.02053434 3.40364561 0 0 Z " fill="#FAFAFB" transform="translate(274,451)"/>
<path d="M0 0 C2.58297781 2.18991597 4.48415844 3.96831688 6 7 C6.06996014 8.70702735 6.08440154 10.41668003 6.0625 12.125 C6.05347656 13.03507812 6.04445313 13.94515625 6.03515625 14.8828125 C6.02355469 15.58148438 6.01195312 16.28015625 6 17 C6.721875 17.061875 7.44375 17.12375 8.1875 17.1875 C11.93950492 18.27141253 13.59876799 19.96314775 16 23 C15.8125 25.3125 15.8125 25.3125 15 27 C12.125 26.6875 12.125 26.6875 9 26 C8.34 25.01 7.68 24.02 7 23 C6.67 27.29 6.34 31.58 6 36 C4.02 36.495 4.02 36.495 2 37 C0.27758789 35.91381836 0.27758789 35.91381836 -1 34 C-1.40063477 31.42797852 -1.40063477 31.42797852 -1.44140625 28.37890625 C-1.46783203 27.27869141 -1.49425781 26.17847656 -1.52148438 25.04492188 C-1.53501953 23.89572266 -1.54855469 22.74652344 -1.5625 21.5625 C-1.59698579 19.292824 -1.63961892 17.0232534 -1.69140625 14.75390625 C-1.70373291 13.74658447 -1.71605957 12.7392627 -1.72875977 11.70141602 C-2.00159535 8.98411115 -2.61026543 7.3245274 -4 5 C-4.99 5.33 -5.98 5.66 -7 6 C-7.72980677 7.80999071 -7.72980677 7.80999071 -8.0625 9.9375 C-8.79820628 13.79820628 -8.79820628 13.79820628 -11 16 C-13.625 16.125 -13.625 16.125 -16 16 C-16.58455882 6.0625 -16.58455882 6.0625 -13 2 C-8.42366471 -1.1202286 -5.3165908 -1.5466446 0 0 Z " fill="#FAFBFC" transform="translate(457,452)"/>
<path d="M0 0 C2.875 0.3125 2.875 0.3125 6 1 C6.66 1.99 7.32 2.98 8 4 C10.475 4.99 10.475 4.99 13 6 C13 14.58 13 23.16 13 32 C14.65 32 16.3 32 18 32 C18.20496094 31.43410156 18.40992188 30.86820312 18.62109375 30.28515625 C19.02521484 29.18494141 19.02521484 29.18494141 19.4375 28.0625 C19.70433594 27.33160156 19.97117188 26.60070312 20.24609375 25.84765625 C21 24 21 24 22 23 C23.66617115 22.95936168 25.33388095 22.957279 27 23 C28.3100815 25.97745796 27.91379462 27.30171881 27 30.5 C25.3508316 33.97824607 23.34303041 35.73199166 19.89453125 37.39453125 C16.45181066 38.49478216 14.39289157 38.17208982 11 37 C7.72382131 34.43750761 5.33657228 31.67389498 4.50512695 27.53881836 C4.36629017 24.8038096 4.36273817 22.11243303 4.4375 19.375 C4.8344142 12.10814877 4.8344142 12.10814877 1.4609375 5.99609375 C0.64882812 5.33738281 -0.16328125 4.67867188 -1 4 C-0.8125 1.6875 -0.8125 1.6875 0 0 Z " fill="#F9FAFB" transform="translate(127,451)"/>
<path d="M0 0 C2.58297781 2.18991597 4.48415844 3.96831688 6 7 C6.06950541 8.54023996 6.08452357 10.08334988 6.0625 11.625 C6.05347656 12.44226563 6.04445312 13.25953125 6.03515625 14.1015625 C6.02355469 14.72804688 6.01195312 15.35453125 6 16 C3.6875 16.25 3.6875 16.25 1 16 C-2.42609783 12.94098408 -2.57599326 9.40967012 -3 5 C-4.65 5.33 -6.3 5.66 -8 6 C-8.01458252 6.83249268 -8.02916504 7.66498535 -8.04418945 8.52270508 C-8.1052863 11.61489653 -8.17944556 14.70642082 -8.26245117 17.7980957 C-8.31201319 19.7929063 -8.34651133 21.78807257 -8.38085938 23.78320312 C-8.41630859 25.03681641 -8.45175781 26.29042969 -8.48828125 27.58203125 C-8.51446533 28.73936768 -8.54064941 29.8967041 -8.56762695 31.08911133 C-9 34 -9 34 -10.39916992 35.91674805 C-12 37 -12 37 -14.125 36.75 C-16 36 -16 36 -17 35 C-17.28296128 30.96565812 -17.23191021 26.91806869 -17.25 22.875 C-17.270625 21.74578125 -17.29125 20.6165625 -17.3125 19.453125 C-17.34182911 13.19135966 -17.13741322 8.48285806 -14 3 C-9.58231462 -1.14158005 -5.79524083 -1.39885123 0 0 Z " fill="#F9FAFB" transform="translate(215,452)"/>
<path d="M0 0 C2.875 0.25 2.875 0.25 6 1 C7.375 3.0625 7.375 3.0625 8 5 C9.65 5 11.3 5 13 5 C13.33 13.91 13.66 22.82 14 32 C15.98 32 17.96 32 20 32 C20.12375 30.88625 20.2475 29.7725 20.375 28.625 C21 25 21 25 23 23 C25.625 22.875 25.625 22.875 28 23 C28.29216602 27.96682232 28.24708889 31.10349334 25 35 C21.58093877 37.33117811 19.58956112 38 15.4375 38 C11.37697465 36.81875626 9.70824581 35.18617154 7 32 C6.67 31.67 6.34 31.34 6 31 C5.90336208 29.41240385 5.86800423 27.82097997 5.859375 26.23046875 C5.84003906 25.25916016 5.82070313 24.28785156 5.80078125 23.28710938 C5.76712226 21.23261671 5.74871296 19.17781357 5.74609375 17.12304688 C5.77141089 11.15683343 5.77141089 11.15683343 2.47265625 6.47265625 C1.65667969 5.98667969 0.84070313 5.50070312 0 5 C-0.3125 2.25 -0.3125 2.25 0 0 Z " fill="#FAFBFC" transform="translate(402,451)"/>
<path d="M0 0 C4.41584158 2.45324532 4.41584158 2.45324532 6 5 C6.50227247 8.71995552 6.35267975 12.27073824 6 16 C1.25 15.25 1.25 15.25 -1 13 C-1.4140625 10.8359375 -1.4140625 10.8359375 -1.625 8.375 C-1.69976562 7.55773437 -1.77453125 6.74046875 -1.8515625 5.8984375 C-1.92503906 4.95871094 -1.92503906 4.95871094 -2 4 C-3.65 4.66 -5.3 5.32 -7 6 C-7.58673862 10.73719295 -8.05848431 15.41180879 -8.2109375 20.18359375 C-8.23929687 21.04791016 -8.26765625 21.91222656 -8.296875 22.80273438 C-8.34976216 24.58635388 -8.3937758 26.37025485 -8.4296875 28.15429688 C-8.460625 29.00958984 -8.4915625 29.86488281 -8.5234375 30.74609375 C-8.54325684 31.51622803 -8.56307617 32.2863623 -8.58349609 33.07983398 C-9 35 -9 35 -12 37 C-14.1875 36.625 -14.1875 36.625 -16 36 C-16.08738991 31.62512669 -16.140524 27.25047922 -16.1875 22.875 C-16.21263672 21.6375 -16.23777344 20.4 -16.26367188 19.125 C-16.27333984 17.92617188 -16.28300781 16.72734375 -16.29296875 15.4921875 C-16.3086792 14.39245605 -16.32438965 13.29272461 -16.34057617 12.15966797 C-15.85436058 7.64884205 -14.37820421 4.24899757 -11 1.1875 C-6.99214522 -1.19216378 -4.42898642 -1.21580019 0 0 Z " fill="#FAFBFC" transform="translate(323,452)"/>
<path d="M0 0 C2.9375 0.375 2.9375 0.375 6 1 C7.32229189 3.64458379 7.09677194 5.67761301 7.0625 8.625 C7.05347656 9.62789063 7.04445313 10.63078125 7.03515625 11.6640625 C7.02355469 12.43492187 7.01195312 13.20578125 7 14 C8.0725 14.020625 9.145 14.04125 10.25 14.0625 C14 15 14 15 15.35546875 16.625 C16.32906795 18.36834009 17.17372659 20.1821985 18 22 C17 23 17 23 13.9375 23.0625 C12.968125 23.041875 11.99875 23.02125 11 23 C10.34 21.68 9.68 20.36 9 19 C8.34 19 7.68 19 7 19 C7 25.27 7 31.54 7 38 C5.02 37.67 3.04 37.34 1 37 C-0.55977064 33.88045872 -0.12104126 30.57040616 -0.09765625 27.1484375 C-0.0962413 26.37440582 -0.09482635 25.60037415 -0.09336853 24.80288696 C-0.08776403 22.32688558 -0.07521083 19.85097412 -0.0625 17.375 C-0.05748558 15.69791797 -0.05292257 14.02083453 -0.04882812 12.34375 C-0.03779315 8.22913194 -0.02052554 4.11458122 0 0 Z " fill="#FCFDFD" transform="translate(374,451)"/>
</svg>
