<?xml version="1.0" encoding="UTF-8"?>
<svg version="1.1" xmlns="http://www.w3.org/2000/svg" width="1433" height="1556">
<path d="M0 0 C7.10015922 3.21946151 11.63666137 11.40904235 15.73144531 17.68261719 C16.33746582 18.60478027 16.94348633 19.52694336 17.56787109 20.47705078 C33.45437377 44.92202357 44.8488159 71.02746046 49.91894531 99.87011719 C50.22638672 101.51560547 50.22638672 101.51560547 50.54003906 103.19433594 C59.78510644 162.17148988 39.26632557 223.22363441 4.95410156 270.74121094 C-2.99798695 281.62075825 -11.57214112 291.87639996 -20.45361328 302.00439453 C-23.10398778 305.04282266 -25.71549308 308.11423334 -28.33105469 311.18261719 C-31.75513691 315.19385952 -35.21833464 319.15668216 -38.76855469 323.05761719 C-41.77919947 326.37094798 -44.64670647 329.75953648 -47.45605469 333.24511719 C-51.13742157 337.79872431 -55.00879941 342.10594235 -58.99462891 346.38916016 C-61.9851811 349.62187923 -64.81877154 352.93699385 -67.58105469 356.37011719 C-70.78037407 360.34641413 -74.10692509 364.13677792 -77.58105469 367.87011719 C-81.87839365 372.4889751 -85.90876576 377.26231882 -89.86621094 382.17871094 C-93.45666275 386.54171146 -97.2616521 390.70760042 -101.08105469 394.87011719 C-90.71475349 388.79646935 -81.47215586 381.32264636 -72.08105469 373.87011719 C-71.11683594 373.11214844 -70.15261719 372.35417969 -69.15917969 371.57324219 C-59.07076199 363.59482035 -49.34642712 355.23016816 -39.91699219 346.48730469 C-37.31111257 344.08242956 -34.67198562 341.72221211 -32.01855469 339.37011719 C-24.52092388 332.63189272 -17.35040119 325.54861605 -10.80761719 317.87402344 C-8.86364423 315.61778333 -6.84781951 313.43647826 -4.83105469 311.24511719 C0.75231416 305.04032786 5.86430223 298.50503317 10.91894531 291.87011719 C11.74966553 290.7841626 11.74966553 290.7841626 12.59716797 289.67626953 C21.12275192 278.48271854 28.86744318 267.04462011 35.91894531 254.87011719 C36.34127441 254.15033691 36.76360352 253.43055664 37.19873047 252.68896484 C60.50396032 212.82027928 77.7748667 163.47436528 75.91894531 116.87011719 C75.14808594 117.80855469 74.37722656 118.74699219 73.58300781 119.71386719 C72.5702951 120.93287323 71.55725743 122.15160936 70.54394531 123.37011719 C70.03605469 123.99015625 69.52816406 124.61019531 69.00488281 125.24902344 C67.68686925 126.82717126 66.30681899 128.35304206 64.91894531 129.87011719 C64.25894531 129.87011719 63.59894531 129.87011719 62.91894531 129.87011719 C62.48729478 125.58384272 62.06021322 121.29714391 61.63720703 117.01000977 C61.49292909 115.55415819 61.34744232 114.09842585 61.20068359 112.64282227 C60.98893995 110.54051041 60.7816676 108.43779627 60.57519531 106.33496094 C60.44951172 105.07288818 60.32382812 103.81081543 60.19433594 102.51049805 C59.46272083 92.83929873 59.46272083 92.83929873 60.81420898 89.96826172 C61.23420166 89.48470215 61.65419434 89.00114258 62.08691406 88.50292969 C62.79932251 87.65214844 62.79932251 87.65214844 63.52612305 86.78417969 C64.04762939 86.19378906 64.56913574 85.60339844 65.10644531 84.99511719 C66.2074172 83.6869133 67.30629668 82.37694624 68.40332031 81.06542969 C69.26666992 80.04497559 69.26666992 80.04497559 70.14746094 79.00390625 C73.15917438 75.37623597 76.00461783 71.62388924 78.85644531 67.87011719 C79.65248169 66.83008545 79.65248169 66.83008545 80.46459961 65.76904297 C83.70121337 61.52690414 86.8385019 57.22698743 89.91894531 52.87011719 C92.91894531 53.87011719 92.91894531 53.87011719 94.03808594 55.94873047 C94.38033203 56.85349121 94.72257813 57.75825195 95.07519531 58.69042969 C95.45667725 59.69251465 95.83815918 60.69459961 96.23120117 61.72705078 C96.62315674 62.8055127 97.0151123 63.88397461 97.41894531 64.99511719 C97.82185791 66.09807129 98.22477051 67.20102539 98.63989258 68.33740234 C101.54539229 76.47232435 103.94337516 84.25865017 104.91894531 92.87011719 C105.02287598 93.7629541 105.12680664 94.65579102 105.23388672 95.57568359 C114.08383402 176.16920369 83.10505312 254.11925819 33.31347656 316.40917969 C27.25123066 323.8978848 20.98251235 331.15669156 14.40722656 338.19824219 C12.15651358 340.61502034 9.97197002 343.0755852 7.79394531 345.55761719 C3.46751103 350.37693638 -1.07336539 354.97116562 -5.64355469 359.55761719 C-6.35205566 360.27071045 -7.06055664 360.98380371 -7.79052734 361.71850586 C-11.8328703 365.74913867 -15.97353228 369.60406878 -20.29711914 373.33129883 C-22.53436162 375.26113862 -24.71297534 377.25166287 -26.89355469 379.24511719 C-32.14286445 383.97587812 -37.57729414 388.4400877 -43.08105469 392.87011719 C-44.21419166 393.79550126 -45.34698918 394.72130112 -46.47949219 395.64746094 C-58.17286068 405.16266846 -70.39659689 413.88817357 -82.73461914 422.54199219 C-107.26126415 439.76029053 -130.08019568 458.69844861 -148.08105469 482.87011719 C-148.78617187 483.65386719 -149.49128906 484.43761719 -150.21777344 485.24511719 C-152.63290922 488.64757263 -153.59650586 492.12699176 -154.58105469 496.12011719 C-154.78827148 496.93569092 -154.99548828 497.75126465 -155.20898438 498.59155273 C-158.95542042 513.97460273 -161.64664234 530.02351023 -162.08105469 545.87011719 C-162.12101562 547.12695312 -162.16097656 548.38378906 -162.20214844 549.67871094 C-163.07426788 590.67325192 -152.29990547 630.82907648 -133.08105469 666.87011719 C-132.73993652 667.51899902 -132.39881836 668.16788086 -132.04736328 668.83642578 C-120.58443897 690.5182775 -105.39774566 709.57848469 -88.14355469 726.93261719 C-87.57548096 727.50536377 -87.00740723 728.07811035 -86.42211914 728.66821289 C-83.52732507 731.63269225 -83.52732507 731.63269225 -80.08105469 733.87011719 C-79.89748413 732.38886353 -79.89748413 732.38886353 -79.71020508 730.87768555 C-79.11746449 726.74354196 -78.1056707 722.7760135 -77.01464844 718.74902344 C-76.81629898 718.00426254 -76.61794952 717.25950165 -76.41358948 716.49217224 C-75.78568109 714.13796032 -75.15221593 711.78528642 -74.51855469 709.43261719 C-74.08914857 707.82659619 -73.6601085 706.22047727 -73.23144531 704.61425781 C-72.18621975 700.69819997 -71.13347636 696.78427537 -70.08105469 692.87011719 C-59.52105469 692.87011719 -48.96105469 692.87011719 -38.08105469 692.87011719 C-39.28751268 699.50563614 -40.49934747 705.99792354 -42.11230469 712.52270508 C-42.40053101 713.70535446 -42.40053101 713.70535446 -42.69458008 714.91189575 C-43.31988685 717.47306471 -43.9501161 720.0329865 -44.58105469 722.59277344 C-45.02189658 724.3882793 -45.46265029 726.18380681 -45.90332031 727.97935486 C-46.82213762 731.71917415 -47.74372786 735.45829772 -48.66699219 739.19702148 C-49.85102986 743.99376608 -51.02537144 748.79282875 -52.1973877 753.59252262 C-53.10190078 757.29020233 -54.01280241 760.9862859 -54.92553711 764.68194389 C-55.36161988 766.45205952 -55.79538707 768.22274727 -56.22680664 769.9940052 C-56.82778223 772.45840526 -57.43762781 774.9204424 -58.04980469 777.38208008 C-58.22648682 778.11501785 -58.40316895 778.84795563 -58.58520508 779.60310364 C-59.85273645 784.64179895 -59.85273645 784.64179895 -62.08105469 786.87011719 C-72.6474093 780.99485966 -81.97916377 774.29951664 -91.18603516 766.47265625 C-92.91753832 765.00839616 -94.66763012 763.57196939 -96.42871094 762.14355469 C-104.16273756 755.79472686 -111.30228368 748.85807235 -118.39355469 741.80761719 C-119.77244873 740.44262085 -119.77244873 740.44262085 -121.17919922 739.05004883 C-168.84030437 691.16936677 -192.31827974 625.61735221 -194.08105469 558.87011719 C-194.12552734 557.30197266 -194.12552734 557.30197266 -194.17089844 555.70214844 C-194.20833448 552.75302032 -194.15883119 549.81855386 -194.08105469 546.87011719 C-194.06848633 546.17499023 -194.05591797 545.47986328 -194.04296875 544.76367188 C-193.42098986 514.36286712 -187.76526009 483.99267365 -176.08105469 455.87011719 C-175.54786621 454.58355225 -175.54786621 454.58355225 -175.00390625 453.27099609 C-166.67097181 433.47220225 -156.05387244 414.98998324 -143.08105469 397.87011719 C-142.29472656 396.82210938 -141.50839844 395.77410156 -140.69824219 394.69433594 C-131.04502206 381.9293765 -120.80154237 369.61738587 -110.41943359 357.44238281 C-108.61050413 355.31733616 -106.81087422 353.18450077 -105.01074219 351.05200195 C-100.17990034 345.33004231 -95.31045693 339.64262332 -90.42553711 333.96679688 C-87.37885849 330.41605576 -84.39673419 326.8222258 -81.45605469 323.18261719 C-77.65545906 318.49704532 -73.63467488 314.05800086 -69.54980469 309.62011719 C-67.13727365 306.93274084 -64.84849258 304.18046275 -62.58105469 301.37011719 C-59.5275679 297.58551385 -56.37437168 293.94804182 -53.08105469 290.37011719 C-48.99694825 285.92676065 -45.13239418 281.3582309 -41.34667969 276.65917969 C-39.05255353 273.83503127 -36.69387464 271.07440313 -34.33105469 268.30761719 C-24.06291976 255.97946763 -14.94219026 242.85150149 -7.08105469 228.87011719 C-6.71560547 228.23348145 -6.35015625 227.5968457 -5.97363281 226.94091797 C17.40096663 186.01511365 26.93007994 137.04546663 15.01928711 90.99951172 C10.54960522 74.7967268 4.03312356 59.02493421 -5.08105469 44.87011719 C-10.47599866 45.86518463 -13.95171649 49.45050899 -18.08105469 52.87011719 C-18.61085938 53.3082373 -19.14066406 53.74635742 -19.68652344 54.19775391 C-27.06344804 60.32760687 -34.05024521 66.68251977 -40.75292969 73.54199219 C-42.55819215 75.34725465 -44.33306763 76.98025898 -46.33105469 78.55761719 C-49.3217778 81.07254344 -51.71139898 83.80732013 -54.23730469 86.77636719 C-56.06207556 88.84856462 -57.97294214 90.7624606 -59.95605469 92.68261719 C-63.84787878 96.5221519 -67.26214336 100.64577057 -70.67871094 104.90917969 C-72.72966995 107.43702836 -74.83339139 109.90450272 -76.9699707 112.35986328 C-94.68831605 132.83368943 -109.0999136 156.18454634 -122.08105469 179.87011719 C-122.70705566 181.0111792 -123.33305664 182.15224121 -123.97802734 183.32788086 C-128.64360198 191.90798331 -132.91537562 200.60890122 -136.83105469 209.55761719 C-137.12586731 210.22976257 -137.42067993 210.90190796 -137.72442627 211.59442139 C-144.99966927 228.29428952 -150.79448527 245.44969904 -156.08105469 262.87011719 C-156.27979187 263.52455811 -156.47852905 264.17899902 -156.68328857 264.85327148 C-166.36508252 296.95999704 -171.27649003 329.87812127 -175.12841797 363.11767578 C-175.24530472 364.11383408 -175.36219147 365.10999237 -175.48262024 366.13633728 C-175.70004013 367.99992931 -175.91231611 369.864132 -176.11833191 371.72901917 C-176.6898142 376.63954787 -177.5763522 381.15820098 -179.08105469 385.87011719 C-182.24876605 382.13991502 -184.04797747 377.92603237 -186.01855469 373.49511719 C-186.40479004 372.63370117 -186.79102539 371.77228516 -187.18896484 370.88476562 C-190.37557315 363.6781863 -193.3033267 356.37534912 -196.19537354 349.04696655 C-208.63389845 317.53946337 -222.36520779 287.585789 -246.08105469 262.87011719 C-246.95890625 261.92910156 -247.83675781 260.98808594 -248.74121094 260.01855469 C-267.15763268 240.62653303 -290.74978194 225.60330374 -317.93261719 223.66699219 C-333.05374471 223.41142383 -346.49422061 227.73337407 -357.64746094 238.17089844 C-362.76574185 243.84783602 -367.04493643 250.18423003 -371.39941406 256.45361328 C-373.06604237 258.8485446 -374.74990183 261.23029039 -376.44042969 263.60839844 C-380.72966521 269.64721589 -385.00088383 275.68745829 -389.08105469 281.87011719 C-388.48164063 281.84691406 -387.88222656 281.82371094 -387.26464844 281.79980469 C-350.42660818 281.06618795 -316.12786402 290.84210356 -289.05688477 316.49389648 C-264.30109933 340.69737319 -254.24121923 371.97543147 -252.06152344 405.90917969 C-251.99649691 406.91260155 -251.99649691 406.91260155 -251.93015671 407.93629456 C-251.26450743 418.33769844 -250.84161342 428.73225957 -250.58886719 439.15136719 C-250.56379184 440.15375616 -250.56379184 440.15375616 -250.53820992 441.17639542 C-250.38573349 447.29224924 -250.241474 453.40820111 -250.12744141 459.52490234 C-250.03444069 480.58158102 -250.03444069 480.58158102 -245.08105469 500.87011719 C-244.74928223 501.76134277 -244.41750977 502.65256836 -244.07568359 503.57080078 C-243.08412009 506.03844722 -241.99653152 508.41760219 -240.83105469 510.80761719 C-240.41339844 511.67386719 -239.99574219 512.54011719 -239.56542969 513.43261719 C-231.98982476 528.56230544 -221.96507015 542.58939529 -211.47167969 555.83105469 C-208.57309332 559.51585893 -205.78983897 563.2766367 -203.01855469 567.05761719 C-202.5405542 567.70674072 -202.06255371 568.35586426 -201.57006836 569.0246582 C-197.89881437 574.03969174 -196.89783263 576.73334543 -196.32714844 582.93261719 C-196.26197525 583.63854004 -196.19680206 584.34446289 -196.12965393 585.07177734 C-195.99238018 586.57126874 -195.8571791 588.0709511 -195.72387695 589.57080078 C-195.52178323 591.83396208 -195.31070286 594.09615295 -195.09863281 596.35839844 C-194.41008578 603.879115 -193.90855772 611.31024995 -194.08105469 618.87011719 C-198.65460343 617.39944073 -201.89173911 614.79272372 -205.45605469 611.68261719 C-206.03186279 611.18793945 -206.6076709 610.69326172 -207.20092773 610.18359375 C-210.77717644 607.08488567 -214.19373998 603.88273294 -217.47949219 600.47558594 C-219.25282784 598.69792508 -221.11407873 597.06870174 -223.01855469 595.43261719 C-229.95717061 589.43165206 -236.13097454 582.83750726 -242.08105469 575.87011719 C-242.90476562 574.93554688 -243.72847656 574.00097656 -244.57714844 573.03808594 C-271.76509661 541.95004644 -280.56516515 511.46444555 -281.49604607 470.61026573 C-281.54773058 468.36473508 -281.60415384 466.1193639 -281.66175842 463.87397766 C-281.82475162 457.50248672 -281.98242128 451.13088632 -282.13061523 444.7590332 C-283.49819847 386.06300843 -283.49819847 386.06300843 -313.79199219 337.24902344 C-332.0065524 321.20751398 -356.62317223 312.9576033 -380.81933594 313.52636719 C-402.66322536 314.96447888 -422.78549357 323.52572036 -440.78417969 335.69824219 C-443.08105469 336.87011719 -443.08105469 336.87011719 -445.03344727 336.60473633 C-447.2733948 335.80111142 -448.43142247 334.92747921 -450.13964844 333.28808594 C-450.96625977 332.50788086 -450.96625977 332.50788086 -451.80957031 331.71191406 C-452.37353516 331.16599609 -452.9375 330.62007813 -453.51855469 330.05761719 C-454.64077343 328.98705408 -455.76444886 327.91801565 -456.88964844 326.85058594 C-457.4257373 326.34188965 -457.96182617 325.83319336 -458.51416016 325.30908203 C-460.61436695 323.3803474 -462.82473462 321.61191193 -465.08105469 319.87011719 C-463.85025609 312.22158302 -456.27339182 305.85705814 -450.89550781 300.68383789 C-449.11411298 298.90316213 -447.46826498 297.06141948 -445.82714844 295.15136719 C-442.22075228 291.00051048 -438.48426655 286.98926884 -434.70605469 282.99511719 C-429.08531865 277.02119183 -423.50390367 271.0252487 -418.08105469 264.87011719 C-417.29214844 264.00644531 -416.50324219 263.14277344 -415.69042969 262.25292969 C-409.29640383 255.03572086 -403.92717989 247.32717112 -398.58105469 239.30761719 C-382.7360524 215.58240585 -363.8905128 199.24268692 -335.63574219 193.12402344 C-306.60198831 188.05186162 -277.50460714 197.21746456 -253.52709961 213.50708008 C-246.1519116 218.69930254 -239.54816125 224.60251006 -233.08105469 230.87011719 C-232.55125 231.37414062 -232.02144531 231.87816406 -231.47558594 232.39746094 C-223.73812721 239.76734443 -216.95361453 247.50881579 -210.50195312 256.01708984 C-207.93536424 259.36423927 -205.28568449 262.64501066 -202.64355469 265.93261719 C-201.6656209 267.1526138 -200.6877527 268.37266299 -199.70996094 269.59277344 C-199.29818604 270.10590088 -198.88641113 270.61902832 -198.4621582 271.14770508 C-196.66658562 273.38701294 -194.8738505 275.62858594 -193.08105469 277.87011719 C-192.80394653 276.80374023 -192.80394653 276.80374023 -192.52124023 275.71582031 C-182.68353374 238.1944311 -169.3829716 202.63398297 -152.08105469 167.87011719 C-151.51185303 166.71769531 -151.51185303 166.71769531 -150.93115234 165.54199219 C-140.65076248 144.87596882 -128.07332994 125.20719328 -114.08105469 106.87011719 C-113.6032959 106.24218262 -113.12553711 105.61424805 -112.63330078 104.96728516 C-103.21014451 92.64469619 -93.18496067 80.86757984 -82.61132812 69.51806641 C-80.91912226 67.6957324 -79.23831461 65.86322441 -77.55761719 64.03027344 C-66.73378379 52.27001226 -66.73378379 52.27001226 -60.79199219 47.33105469 C-59.00647288 45.80643318 -57.39747109 44.18521354 -55.76855469 42.49511719 C-52.13922713 38.79965155 -48.16906951 35.59728307 -44.12011719 32.37402344 C-41.6306949 30.32296985 -39.24115291 28.22033612 -36.85058594 26.05761719 C-32.14823183 21.8555865 -27.20990386 18.05742087 -22.14355469 14.30761719 C-21.31404297 13.68693359 -20.48453125 13.06625 -19.62988281 12.42675781 C-17.9656771 11.18668534 -16.29596127 9.95397057 -14.62060547 8.72900391 C-12.85770282 7.43860391 -11.10681815 6.13168759 -9.36572266 4.81201172 C-8.48674316 4.16216309 -7.60776367 3.51231445 -6.70214844 2.84277344 C-5.91122803 2.24859619 -5.12030762 1.65441895 -4.30541992 1.04223633 C-2.08105469 -0.12988281 -2.08105469 -0.12988281 0 0 Z " fill="#FFFFFF" transform="translate(591.0810546875,0.1298828125)"/>
<path d="M0 0 C118.8 0 237.6 0 360 0 C360 11.55 360 23.1 360 35 C253.08 35 146.16 35 36 35 C36 211.22 36 387.44 36 569 C24.12 569 12.24 569 0 569 C0 381.23 0 193.46 0 0 Z " fill="#FFFFFF" transform="translate(762,634)"/>
<path d="M0 0 C83.49 0 166.98 0 253 0 C253 208.23 253 416.46 253 631 C241.45 631 229.9 631 218 631 C217.30432777 627.52163887 216.8750779 625.00709791 216.8758015 621.58949822 C216.87355421 620.73111219 216.87130692 619.87272616 216.86899152 618.98832843 C216.87161854 618.05329534 216.87424555 617.11826225 216.87695217 616.15489483 C216.87579833 615.15129676 216.87464448 614.14769869 216.87345567 613.11368856 C216.87079569 609.72980321 216.87530615 606.34596486 216.87974548 602.96208191 C216.87930966 600.5200095 216.87843454 598.07793714 216.87715632 595.63586503 C216.87538263 590.31560591 216.8767274 584.99536103 216.88079453 579.67510414 C216.88682543 571.76405739 216.88713071 563.85301769 216.88625254 555.94196906 C216.88493804 542.63483034 216.8882823 529.32769659 216.89426994 516.02055931 C216.90018438 502.84238854 216.90403537 489.66421983 216.90512276 476.48604774 C216.9051915 475.6670605 216.90526024 474.84807325 216.90533106 474.0042682 C216.90566939 469.84514645 216.90597077 465.6860247 216.90625793 461.52690295 C216.90835906 432.05805434 216.91509841 402.58920842 216.92456055 373.12036133 C216.93374301 344.4895021 216.94082759 315.85864361 216.94506836 287.2277832 C216.94519989 286.34545379 216.94533141 285.46312438 216.94546692 284.55405771 C216.94678543 275.69344646 216.94806125 266.8328352 216.94930578 257.97222394 C216.95184208 239.92169357 216.95466334 221.87116324 216.95765686 203.82063293 C216.9578628 202.57569668 216.9578628 202.57569668 216.95807289 201.3056102 C216.96727554 145.87040566 216.98314175 90.43520267 217 35 C216.01785774 35.00829614 215.03571548 35.01659227 214.02381134 35.02513981 C190.12053217 35.22498082 166.2173614 35.37285228 142.31342316 35.46630955 C130.75356854 35.5127069 119.19426592 35.57595644 107.63476562 35.67895508 C97.55885178 35.76869168 87.4833377 35.82673139 77.40703535 35.84679645 C72.07200599 35.85852489 66.73812024 35.88606379 61.40345764 35.95157051 C56.37985965 36.01275653 51.35787383 36.03148554 46.3339386 36.01796913 C44.49244416 36.02044094 42.65089468 36.03828978 40.8097229 36.07284927 C26.91114759 36.32088835 26.91114759 36.32088835 22.16954041 33.04372978 C20.12894319 30.78934345 18.54938076 28.60846513 17 26 C16.18354123 24.89493896 15.36137347 23.794052 14.53125 22.69921875 C13.8609375 21.70535156 13.190625 20.71148438 12.5 19.6875 C12.13398682 19.14770508 11.76797363 18.60791016 11.39086914 18.05175781 C10.63528275 16.93484635 9.88273485 15.81587309 9.13330078 14.69482422 C7.98000421 12.97009678 6.8169744 11.25224612 5.65234375 9.53515625 C0 1.1513448 0 1.1513448 0 0 Z " fill="#FFFFFF" transform="translate(468,634)"/>
<path d="M0 0 C11.88 0 23.76 0 36 0 C36 174.9 36 349.8 36 530 C121.8 530 207.6 530 296 530 C296 541.22 296 552.44 296 564 C291.60836674 565.46387775 287.29129137 565.36554184 282.68359375 565.52734375 C281.52733994 565.56866928 280.37108612 565.60999481 279.17979431 565.65257263 C258.0354424 566.32453559 236.87174636 566.36168767 215.71893311 566.53222656 C210.89134299 566.57219659 206.06379583 566.61640923 201.23624325 566.66064739 C157.16045759 567.06272927 113.10133366 567.09830539 69.02612305 566.62768555 C63.77608066 566.57177455 58.52599839 566.52185707 53.27588367 566.47328281 C49.13619385 566.43409031 44.99654968 566.39109514 40.8569088 566.34705925 C38.92000322 566.32701725 36.98308389 566.30825287 35.04615211 566.29092598 C32.34817427 566.26636748 29.65030182 566.23643641 26.95239258 566.20532227 C26.19431808 566.1995668 25.43624359 566.19381134 24.65519714 566.18788147 C16.40206282 566.08145864 8.2715525 565.48656191 0 565 C0 378.55 0 192.1 0 0 Z " fill="#FFFFFF" transform="translate(762,22)"/>
<path d="M0 0 C0.33 0 0.66 0 1 0 C1 135.3 1 270.6 1 410 C-87.44 410 -175.88 410 -267 410 C-272.05967003 398.19410325 -272.17732368 388.16282115 -273 375 C-194.79 375 -116.58 375 -36 375 C-36.22042969 354.67148437 -36.44085937 334.34296875 -36.66796875 313.3984375 C-36.7651722 300.43746847 -36.85755387 287.47672699 -36.92773438 274.515625 C-36.96491793 267.69465259 -37.00330251 260.87368855 -37.04370117 254.05273438 C-37.0487124 253.19817461 -37.05372362 252.34361484 -37.05888671 251.46315932 C-37.14088499 237.77703534 -37.29030625 224.09247265 -37.46590313 210.40726571 C-37.64539484 196.29780664 -37.74949086 182.18914814 -37.7876814 168.0785948 C-37.8111161 160.17932654 -37.86658146 152.28330208 -38.00887108 144.38520432 C-38.62034958 109.40252658 -37.17093561 79.31465311 -20.73581785 47.44417846 C-16.18808051 38.62031481 -12.54295876 29.45879066 -8.8891958 20.23703933 C-7.26365234 16.15066174 -5.59531701 12.08187872 -3.9296875 8.01171875 C-3.64661607 7.31344416 -3.36354465 6.61516957 -3.0718953 5.89573514 C-1.11389653 1.11389653 -1.11389653 1.11389653 0 0 Z " fill="#FFFFFF" transform="translate(721,177)"/>
<path d="M0 0 C9.19020347 6.57617422 15.55894575 15.17798199 17.95834351 26.30848694 C19.7310452 38.44542946 19.46787136 50.50666215 19.2890625 62.74609375 C19.26284179 65.07877073 19.23757926 67.41145866 19.21322632 69.74415588 C19.14709993 75.83507323 19.06809773 81.9257556 18.98626709 88.01647949 C18.90483034 94.25113012 18.83577336 100.48591708 18.765625 106.72070312 C18.62659036 118.91813202 18.47393113 131.11534838 18.3125 143.3125 C16.40504866 143.34305544 14.49745456 143.36477701 12.58984375 143.3828125 C10.99644165 143.40239014 10.99644165 143.40239014 9.37084961 143.42236328 C3.40652958 143.20811055 -0.26876261 141.66955316 -4.5625 137.5625 C-8.92686842 130.8875836 -8.97600371 124.55445368 -8.94287109 116.80664062 C-8.94649155 115.77323044 -8.950112 114.73982025 -8.95384216 113.6750946 C-8.96071443 111.44019959 -8.96324569 109.20528787 -8.96189499 106.97038269 C-8.96092714 103.43086451 -8.97390206 99.89164781 -8.99087524 96.35217285 C-9.0370754 86.29193426 -9.06176011 76.23172781 -9.06835938 66.17138672 C-9.07337498 60.00996503 -9.0976239 53.84886015 -9.13368607 47.68754578 C-9.14347897 45.34325564 -9.14581882 42.9989219 -9.14051437 40.65461731 C-9.13344082 37.37552006 -9.15073195 34.09736738 -9.17333984 30.81835938 C-9.16516739 29.8539946 -9.15699493 28.88962982 -9.14857483 27.89604187 C-9.2227064 21.84431182 -10.16129759 18.27289831 -13.6875 13.3125 C-17.7391381 9.83966735 -22.47308615 9.17344896 -27.6875 9.3125 C-32.03916162 10.17057412 -34.91780107 11.54280107 -38.0625 14.6875 C-41.8370248 20.7848093 -41.97212871 25.74953889 -41.94287109 32.77490234 C-41.94830177 34.35384026 -41.94830177 34.35384026 -41.95384216 35.9646759 C-41.96072912 38.24762481 -41.96324291 40.53059015 -41.96189499 42.81354904 C-41.96092947 46.42851642 -41.97387536 50.0431867 -41.99087524 53.65811157 C-42.03714045 63.93513695 -42.06175526 74.21213188 -42.06835938 84.48925781 C-42.07337497 90.77804809 -42.09762734 97.06652801 -42.13368607 103.35521317 C-42.14348236 105.74974326 -42.14581697 108.14431606 -42.14051437 110.53886032 C-42.13344133 113.89001369 -42.15073216 117.24024256 -42.17333984 120.59130859 C-42.16516739 121.57751694 -42.15699493 122.56372528 -42.14857483 123.57981873 C-42.22180552 129.68901164 -43.08574747 133.32642873 -46.6875 138.3125 C-52.31091023 142.85908699 -56.93627978 143.4526233 -64 143.375 C-65.06863281 143.36597656 -66.13726563 143.35695313 -67.23828125 143.34765625 C-68.45064453 143.33025391 -68.45064453 143.33025391 -69.6875 143.3125 C-69.7812894 128.80371369 -69.85138097 114.29497497 -69.89474869 99.78594685 C-69.9153007 93.04786812 -69.94327864 86.30997866 -69.98925781 79.57202148 C-70.03291199 73.06215102 -70.05667856 66.55247655 -70.06700897 60.04247093 C-70.07436525 57.56632594 -70.08872982 55.09019094 -70.11042023 52.61413002 C-70.26651549 34.04649606 -69.90408851 19.35602037 -56.62109375 5.09375 C-41.15123891 -9.73959919 -17.93834693 -10.8965593 0 0 Z " fill="#FFFFFF" transform="translate(957.6875,1412.6875)"/>
<path d="M0 0 C9.03080623 6.47127292 16.00429602 16.22503043 18.25 27.25 C18.33686981 28.87645065 18.37201725 30.50605873 18.37025452 32.13482666 C18.37231651 33.60713745 18.37231651 33.60713745 18.37442017 35.10919189 C18.36902725 36.71464874 18.36902725 36.71464874 18.36352539 38.35253906 C18.36367142 39.48453735 18.36381744 40.61653564 18.3639679 41.78283691 C18.36327084 45.52711905 18.35548804 49.27135154 18.34765625 53.015625 C18.34579134 55.61065646 18.34436778 58.20568828 18.34336853 60.80072021 C18.33993958 66.93464195 18.33205683 73.06854318 18.32201904 79.20245719 C18.31083806 86.18669512 18.30534245 93.1709339 18.30032361 100.15517855 C18.28987369 114.52012861 18.27228661 128.88506367 18.25 143.25 C16.34254866 143.28055544 14.43495456 143.30227701 12.52734375 143.3203125 C10.93394165 143.33989014 10.93394165 143.33989014 9.30834961 143.35986328 C4.43247233 143.18471003 0.44861578 142.15621675 -3.27734375 138.92578125 C-9.01441607 132.59005791 -9.03932968 125.8104985 -9.00537109 117.75 C-9.00899155 116.70537598 -9.012612 115.66075195 -9.01634216 114.58447266 C-9.02322165 112.32227449 -9.02574432 110.06005978 -9.02439499 107.79785156 C-9.02342851 104.2166829 -9.03638592 100.63581333 -9.05337524 97.0546875 C-9.09961686 86.87502333 -9.12426209 76.69539062 -9.13085938 66.515625 C-9.13587145 60.28403969 -9.16010313 54.05276814 -9.19618607 47.82128906 C-9.20598801 45.44826134 -9.20831389 43.07519049 -9.20301437 40.70214844 C-9.19595101 37.38442374 -9.21321117 34.06763613 -9.23583984 30.75 C-9.22766739 29.77111816 -9.21949493 28.79223633 -9.21107483 27.78369141 C-9.29642888 20.75011185 -11.04695094 17.10750901 -15.9375 11.9375 C-20.41635668 9.25018599 -24.79775037 8.70074425 -29.93359375 9.65625 C-35.11830016 11.30281083 -37.73239945 13.76932039 -40.75 18.25 C-41.69491113 21.15040306 -41.87647888 23.78929498 -41.88130188 26.82870483 C-41.88531006 27.74267532 -41.88931824 28.65664581 -41.89344788 29.59831238 C-41.89291916 30.5937355 -41.89239044 31.58915863 -41.8918457 32.61474609 C-41.89532013 33.66883163 -41.89879456 34.72291718 -41.90237427 35.8089447 C-41.90972542 38.09791919 -41.91507422 40.38690077 -41.91866493 42.67588425 C-41.92583151 46.29884372 -41.94149903 49.92166786 -41.96000671 53.54458618 C-42.01247204 63.84546065 -42.06046874 74.14626035 -42.07592773 84.44726562 C-42.08600347 90.74788646 -42.11531618 97.04816588 -42.15724754 103.34865189 C-42.1695661 105.74958337 -42.17467725 108.15056306 -42.17244911 110.55152512 C-42.17009882 113.91020977 -42.19224275 117.26791276 -42.2199707 120.62646484 C-42.21336929 121.61783951 -42.20676788 122.60921417 -42.19996643 123.63063049 C-42.27969265 129.5112116 -42.94125522 132.71526781 -46.75 137.25 C-47.348125 137.9925 -47.94625 138.735 -48.5625 139.5 C-53.34028207 143.32222566 -58.1060851 143.34492322 -64 143.296875 C-65.07765625 143.29010742 -66.1553125 143.28333984 -67.265625 143.27636719 C-68.49539062 143.26331543 -68.49539062 143.26331543 -69.75 143.25 C-69.8437894 128.74121369 -69.91388097 114.23247497 -69.95724869 99.72344685 C-69.9778007 92.98536812 -70.00577864 86.24747866 -70.05175781 79.50952148 C-70.09541199 72.99965102 -70.11917856 66.48997655 -70.12950897 59.97997093 C-70.13686525 57.50382594 -70.15122982 55.02769094 -70.17292023 52.55163002 C-70.43433691 21.4559444 -70.43433691 21.4559444 -59.75 8.25 C-59.27175781 7.63640625 -58.79351562 7.0228125 -58.30078125 6.390625 C-43.77657824 -10.14574719 -17.77551687 -10.87932973 0 0 Z " fill="#FFFFFF" transform="translate(232.75,1412.75)"/>
<path d="M0 0 C2.54283234 -0.10871967 5.08095088 -0.18762401 7.625 -0.25 C8.33785156 -0.28351563 9.05070312 -0.31703125 9.78515625 -0.3515625 C15.00329328 -0.44730813 17.85850447 0.56212667 22 4 C25.37610238 8.47105451 27.12242388 11.85955428 27.13130188 17.45172119 C27.13531006 18.36287186 27.13931824 19.27402252 27.14344788 20.21278381 C27.14291916 21.21023117 27.14239044 22.20767853 27.1418457 23.23535156 C27.14705734 24.81385139 27.14705734 24.81385139 27.15237427 26.42424011 C27.15973301 28.71268433 27.16507776 31.00113569 27.16866493 33.28958893 C27.17582496 36.91274315 27.19148845 40.53576152 27.21000671 44.15887451 C27.26249634 54.46152885 27.31045252 64.76410937 27.32592773 75.06689453 C27.33601092 81.36636687 27.3653455 87.66549843 27.40724754 93.96483612 C27.41955844 96.36494112 27.42467865 98.76509426 27.42244911 101.1652298 C27.42009543 104.52621295 27.44226967 107.88621921 27.4699707 111.24707031 C27.46336929 112.23642075 27.45676788 113.22577118 27.44996643 114.24510193 C27.53256008 120.35586481 28.43163749 123.99409351 32 129 C35.42838233 131.82046299 39.15018187 132.87859741 43.5 133.5 C49.52158014 132.63977427 53.62338121 130.72959797 57.4375 125.9375 C59.37536519 122.29431345 60.12480599 119.64554098 60.13803101 115.57951355 C60.14348434 114.67533188 60.14893768 113.77115021 60.15455627 112.83956909 C60.15611977 111.3550676 60.15611977 111.3550676 60.15771484 109.84057617 C60.16279556 108.79639023 60.16787628 107.75220428 60.17311096 106.67637634 C60.18382057 104.40594004 60.19243843 102.13549314 60.19923019 99.86504173 C60.21100764 96.27156918 60.23045768 92.67821743 60.25234985 89.08479309 C60.31400465 78.86670956 60.36802012 68.64863812 60.40136719 58.43041992 C60.42230657 52.18286642 60.45760492 45.93553264 60.50212479 39.68810463 C60.51629144 37.3067108 60.52500871 34.92527808 60.52817917 32.54384422 C60.53308504 29.21153128 60.55623584 25.87980189 60.58349609 22.54760742 C60.58048996 21.56401245 60.57748383 20.58041748 60.5743866 19.5670166 C60.64734792 13.56434974 61.2537019 8.9419631 65.53515625 4.35546875 C70.75875876 0.36094918 73.66004042 -0.13507727 80.125 -0.0625 C80.87910156 -0.05798828 81.63320313 -0.05347656 82.41015625 -0.04882812 C84.27347127 -0.03703499 86.13674555 -0.01909942 88 0 C88.07025278 14.56062564 88.12306755 29.12122867 88.15543652 43.68198967 C88.17086917 50.4436499 88.19188922 57.20520448 88.22631836 63.96679688 C88.25954861 70.49608078 88.27687012 77.02529631 88.28463173 83.5546608 C88.29016077 86.04164478 88.30095756 88.52862299 88.31719017 91.01556015 C88.33907086 94.50773678 88.34196242 97.99946471 88.34057617 101.49169922 C88.351362 102.51237991 88.36214783 103.53306061 88.3732605 104.58467102 C88.32200125 116.57351484 84.55411793 126.73381567 76.5625 135.75 C75.716875 136.4925 74.87125 137.235 74 138 C73.53464844 138.47953125 73.06929687 138.9590625 72.58984375 139.453125 C65.06593166 146.77368811 54.62691485 149.70066039 44.3359375 150.13671875 C30.46357236 149.5681792 19.43990914 145.1347678 10 135 C2.32415274 124.93380186 -0.47030931 115.96667994 -0.34057617 103.42163086 C-0.34101425 102.29865601 -0.34145233 101.17568115 -0.34190369 100.01867676 C-0.33982588 96.33388438 -0.31654183 92.64955594 -0.29296875 88.96484375 C-0.28736923 86.39938099 -0.28310081 83.833915 -0.28010559 81.26844788 C-0.26985009 75.22315012 -0.246244 69.17804928 -0.21605712 63.1328302 C-0.18241719 56.24523051 -0.16600311 49.35762257 -0.15097082 42.46996105 C-0.11969125 28.31321658 -0.06699101 14.15661733 0 0 Z " fill="#FFFFFF" transform="translate(476,1406)"/>
<path d="M0 0 C2.54283234 -0.10871967 5.08095088 -0.18762401 7.625 -0.25 C8.33785156 -0.28351563 9.05070313 -0.31703125 9.78515625 -0.3515625 C15.01032037 -0.44743707 17.83554307 0.58651071 22 4 C25.69220956 8.1911568 27.12951809 10.46385166 27.09765625 16.0078125 C27.09443359 16.99394531 27.09121094 17.98007813 27.08789062 18.99609375 C27.07951172 20.02863281 27.07113281 21.06117187 27.0625 22.125 C27.05798828 23.16527344 27.05347656 24.20554687 27.04882812 25.27734375 C27.03701952 27.85161962 27.02055075 30.42578146 27 33 C28.17018677 32.9685791 28.17018677 32.9685791 29.36401367 32.93652344 C32.97170605 32.85228263 36.57919047 32.80100084 40.1875 32.75 C42.02731445 32.69972656 42.02731445 32.69972656 43.90429688 32.6484375 C58.37572883 32.49570471 69.38491447 36.27775061 80.1484375 45.92578125 C86.37990599 52.26468885 89.59566943 59.92535342 93 68 C88.95857785 68.11662261 84.91759135 68.1873935 80.875 68.25 C79.73289062 68.28351563 78.59078125 68.31703125 77.4140625 68.3515625 C66.70506046 68.47608578 66.70506046 68.47608578 62 64 C59.55078125 61.0546875 59.55078125 61.0546875 57.3125 57.875 C54.18019537 53.40678961 54.18019537 53.40678961 50 50 C47.48497823 49.63303819 47.48497823 49.63303819 44.67578125 49.5859375 C43.64775391 49.54726562 42.61972656 49.50859375 41.56054688 49.46875 C40.48869141 49.4378125 39.41683594 49.406875 38.3125 49.375 C37.22904297 49.33632812 36.14558594 49.29765625 35.02929688 49.2578125 C32.35303533 49.16349491 29.67678157 49.07789995 27 49 C27.06162069 56.61599974 27.13901408 64.231707 27.23571491 71.84733963 C27.28015524 75.38485622 27.31946638 78.92226459 27.34643555 82.45996094 C27.37778643 86.54129841 27.43256085 90.62204689 27.48828125 94.703125 C27.49467117 95.95361633 27.5010611 97.20410767 27.50764465 98.49249268 C27.71352569 110.97733634 29.47424493 122.30691788 38.4375 131.5 C41.66959793 133.39195976 43.30606429 133.60309154 47 133 C53.60411749 129.76533021 56.60638362 124.48404095 59.25 117.875 C59.95871194 114.21332163 60.22762237 110.78089808 60.4375 107.0625 C61.20762313 94.97156683 61.20762313 94.97156683 65.4609375 90.4453125 C70.42913801 86.15569547 73.78876303 85.86636781 80.125 85.9375 C80.87910156 85.94201172 81.63320313 85.94652344 82.41015625 85.95117188 C84.27347127 85.96296501 86.13674555 85.98090058 88 86 C88.11779579 90.41643597 88.18778111 94.83245914 88.25 99.25 C88.28351563 100.48492188 88.31703125 101.71984375 88.3515625 102.9921875 C88.47783902 114.98845703 86.12722715 124.96554749 78 134 C77.42507813 134.67804688 76.85015625 135.35609375 76.2578125 136.0546875 C68.59424617 144.48143056 58.35518418 149.26790994 47 150 C33.37013808 150.11677972 22.86075127 146.50737964 13 137 C2.77717612 125.77839447 -0.33391262 114.73308756 -0.22705078 99.78881836 C-0.22734283 98.70485779 -0.22763489 97.62089722 -0.22793579 96.50408936 C-0.2265512 92.94925715 -0.21103101 89.39463899 -0.1953125 85.83984375 C-0.19157928 83.36406061 -0.18873377 80.88827599 -0.18673706 78.41249084 C-0.17912498 71.91716384 -0.15949733 65.42192721 -0.1373291 58.92663574 C-0.11681836 52.29029396 -0.10772418 45.65394327 -0.09765625 39.01757812 C-0.07624914 26.01168034 -0.04253059 13.00584499 0 0 Z " fill="#FFFFFF" transform="translate(613,1406)"/>
<path d="M0 0 C10.19625019 7.41859151 17.92501561 16.968057 20.62109375 29.4921875 C20.70487881 32.40178128 20.7372727 35.28639991 20.71875 38.1953125 C20.71733505 39.03310242 20.7159201 39.87089233 20.71446228 40.73406982 C20.70887572 43.40347907 20.69632569 46.0728037 20.68359375 48.7421875 C20.67857701 50.55468629 20.67401441 52.36718639 20.66992188 54.1796875 C20.65891069 58.61721998 20.6416553 63.05468941 20.62109375 67.4921875 C21.71131836 67.47921631 22.80154297 67.46624512 23.92480469 67.45288086 C34.06405619 67.56070249 43.87227546 72.12708676 51.62109375 78.4921875 C57.01655746 84.21384755 61.96028888 89.60277243 61.74609375 97.7421875 C61.72804688 98.63421875 61.71 99.52625 61.69140625 100.4453125 C61.66820312 101.12078125 61.645 101.79625 61.62109375 102.4921875 C58.41307142 102.60917008 55.2056035 102.67969357 51.99609375 102.7421875 C51.09246094 102.77570313 50.18882813 102.80921875 49.2578125 102.84375 C43.49686428 102.92785143 40.11075054 102.46226976 35.62109375 98.4921875 C33.25106745 95.80615769 31.12841557 93.00184381 28.96484375 90.1484375 C26.31717051 86.91849256 26.31717051 86.91849256 20.62109375 83.4921875 C20.62109375 103.6221875 20.62109375 123.7521875 20.62109375 144.4921875 C3.99178341 144.4921875 3.99178341 144.4921875 -0.90625 140.1328125 C-6.25777373 134.11428726 -6.66984628 128.69370321 -6.63427734 121.02709961 C-6.6378978 120.0800415 -6.64151825 119.1329834 -6.64524841 118.15722656 C-6.65213314 116.10346883 -6.65464958 114.04969283 -6.65330124 111.995924 C-6.65233398 108.73662402 -6.66530427 105.47765205 -6.68228149 102.21839905 C-6.72847835 92.95234756 -6.75313515 83.68632871 -6.75976562 74.42016602 C-6.76480313 68.74730546 -6.78917091 63.07478538 -6.82509232 57.40204048 C-6.83484274 55.24888727 -6.83724847 53.09568693 -6.83192062 50.94251823 C-6.56238205 30.9576083 -6.56238205 30.9576083 -15.37890625 13.4921875 C-18.59787712 10.72029592 -20.07246355 10.4921875 -24.37890625 10.4921875 C-28.73263776 11.28451762 -30.67617143 12.91289004 -33.37890625 16.4921875 C-37.79231104 24.10624845 -39.37753124 30.01553993 -39.62890625 38.8046875 C-39.94304722 45.08445707 -40.92123515 49.85970577 -45.37890625 54.4921875 C-50.4506192 58.32689729 -54.89145907 58.61706197 -61.12890625 58.5546875 C-62.299375 58.54566406 -63.46984375 58.53664063 -64.67578125 58.52734375 C-66.01382812 58.50994141 -66.01382812 58.50994141 -67.37890625 58.4921875 C-68.22007263 29.59812232 -68.22007263 29.59812232 -63.37890625 19.4921875 C-62.96640625 18.61046875 -62.55390625 17.72875 -62.12890625 16.8203125 C-56.48393084 6.23598361 -47.54913301 -0.51079845 -36.37890625 -4.5078125 C-24.58757373 -7.87046389 -10.3093368 -6.53432513 0 0 Z " fill="#FFFFFF" transform="translate(1371.37890625,1411.5078125)"/>
<path d="M0 0 C3.00155373 -0.13615919 5.996821 -0.2346398 9 -0.3125 C9.83917969 -0.35439453 10.67835937 -0.39628906 11.54296875 -0.43945312 C17.96682251 -0.56394641 22.00999397 0.94580832 27 5 C29.56452656 7.70700025 31.29313199 10.50284522 33.0625 13.75 C34.67162578 17.25328616 34.67162578 17.25328616 38 18 C40.56634861 18.22718496 43.11678107 18.41608184 45.6875 18.5625 C46.38939453 18.60568359 47.09128906 18.64886719 47.81445312 18.69335938 C49.54275206 18.7991736 51.2713511 18.90006581 53 19 C52.99777939 19.92167465 52.99555878 20.8433493 52.99327087 21.79295349 C52.97299678 30.60013467 52.95789049 39.4073077 52.94818783 48.2145071 C52.9430315 52.73928788 52.93607079 57.26404893 52.92456055 61.78881836 C52.89573406 73.52626777 52.90011137 85.26286475 53 97 C53.00583351 97.69177589 53.01166702 98.38355179 53.01767731 99.09629059 C53.05777356 103.26482245 53.14156768 107.43049229 53.25390625 111.59765625 C53.26775864 112.57552597 53.28161102 113.55339569 53.29588318 114.56089783 C53.50811837 120.50017599 54.56785035 124.11231442 58 129 C61.45613772 131.89705662 65.58440711 133.23044489 70.0625 133.5 C76.20949631 132.71942904 79.57835934 130.83316822 83.375 125.9375 C85.90679736 121.36078938 86.10478319 117.98325578 86.25 112.8125 C86.55976226 106.67023075 87.29507858 101.3361271 92 97 C96.9042303 93.87256006 100.76305315 93.61461037 106.375 93.8125 C107.11105469 93.82603516 107.84710937 93.83957031 108.60546875 93.85351562 C110.40396743 93.88855131 112.20208422 93.94234712 114 94 C114.70577069 111.46782459 112.50002656 124.85500192 100.375 138.1875 C91.8792507 146.29487219 81.16858177 149.93457658 69.5859375 150.02734375 C55.18433636 149.41551102 45.06671805 144.66007637 35.25 134.1875 C24.64951744 121.39805468 24.70217098 106.92112395 24.8046875 91.08203125 C24.80842527 89.37139553 24.81126862 87.66075765 24.81326294 85.95011902 C24.82083934 81.48348916 24.84043517 77.01699276 24.8626709 72.55041504 C24.88325963 67.97828984 24.89229231 63.40614273 24.90234375 58.83398438 C24.92368768 49.8892648 24.95774976 40.94464357 25 32 C24.22438721 31.8561084 23.44877441 31.7122168 22.6496582 31.56396484 C14.05845531 29.73537564 8.32073459 23.8674192 3.5625 16.81640625 C0.49458545 11.28649027 -0.08685349 6.23173781 0 0 Z " fill="#FFFFFF" transform="translate(1141,1406)"/>
<path d="M0 0 C3.02181414 -0.10867663 6.03966327 -0.18762754 9.0625 -0.25 C9.91005859 -0.28351563 10.75761719 -0.31703125 11.63085938 -0.3515625 C17.6672127 -0.44478803 21.05564679 0.49458035 26 4 C28.92038236 7.05621409 31.12064777 10.12146645 33.125 13.8125 C34.68250559 17.25937339 34.68250559 17.25937339 38 18 C40.56634861 18.22718496 43.11678107 18.41608184 45.6875 18.5625 C46.38939453 18.60568359 47.09128906 18.64886719 47.81445312 18.69335938 C49.54275206 18.7991736 51.2713511 18.90006581 53 19 C53.00546844 20.91227135 53.00546844 20.91227135 53.01104736 22.86317444 C53.0480072 34.88423721 53.10579107 46.90504404 53.18390274 58.9259119 C53.22339212 65.10581072 53.25557365 71.28556672 53.27099609 77.46557617 C53.28615273 83.4309441 53.32058148 89.39591945 53.36830902 95.36111259 C53.38313291 97.63561018 53.39104159 99.91016381 53.39188385 102.18470955 C53.39425212 105.3736456 53.42132218 108.56149554 53.45410156 111.75024414 C53.4490712 112.68820328 53.44404083 113.62616241 53.43885803 114.59254456 C53.5337 120.56604414 54.54335498 124.09118003 58 129 C61.45613772 131.89705662 65.58440711 133.23044489 70.0625 133.5 C76.20949631 132.71942904 79.57835934 130.83316822 83.375 125.9375 C85.9057634 121.36265847 86.13223383 117.92106374 86.3125 112.75 C86.64050772 106.79403294 87.08074302 102.64122537 91 98 C97.49510316 92.24297675 105.81633136 93.64632404 114 94 C114.48335028 111.43641371 113.2540233 124.36181719 100.875 137.75 C92.17275586 146.01347553 81.82966614 149.50287834 70.0625 150.25 C56.89262447 149.79952136 46.83258368 145.50593073 37.26171875 136.4609375 C29.74185507 128.27870241 25.5463827 118.53599096 25.56762695 107.47265625 C25.5574353 106.66194168 25.54724365 105.85122711 25.53674316 105.01594543 C25.50680636 102.3647249 25.49737709 99.71386678 25.48828125 97.0625 C25.4714202 95.21304136 25.45326805 93.36359407 25.43388367 91.51416016 C25.38653235 86.66782176 25.35662701 81.82152944 25.33044434 76.97503662 C25.30056355 72.02102564 25.25405914 67.06717317 25.20898438 62.11328125 C25.12312055 52.40893734 25.05570025 42.70456066 25 33 C24.16782959 32.59587891 23.33565918 32.19175781 22.47827148 31.77539062 C21.39102783 31.24107422 20.30378418 30.70675781 19.18359375 30.15625 C17.56408813 29.36444336 17.56408813 29.36444336 15.91186523 28.55664062 C12.59184809 26.78180795 10.3932915 24.9009594 8 22 C6.700625 20.700625 6.700625 20.700625 5.375 19.375 C1.03256809 14.1010685 -0.22914897 6.66944105 0 0 Z " fill="#FFFFFF" transform="translate(0,1406)"/>
<path d="M0 0 C2.07108359 1.45492628 3.95287549 3.0023406 5.84765625 4.6796875 C6.53859375 5.2778125 7.22953125 5.8759375 7.94140625 6.4921875 C15.53975416 13.52349452 20.38799925 22.68153319 21.07470703 33.13647461 C21.0642334 34.3147583 21.05375977 35.49304199 21.04296875 36.70703125 C21.03652344 37.99287109 21.03007813 39.27871094 21.0234375 40.60351562 C21.00673226 41.94140904 20.98980244 43.27929967 20.97265625 44.6171875 C20.96260947 45.98241533 20.95348661 47.3476503 20.9453125 48.71289062 C20.9218323 52.03533949 20.88898984 55.35742071 20.84765625 58.6796875 C18.76310201 58.70846981 16.67843307 58.72902617 14.59375 58.74609375 C12.85242798 58.76458374 12.85242798 58.76458374 11.07592773 58.78344727 C6.01982912 58.62093937 2.87795907 57.63599295 -0.8671875 54.02734375 C-4.78410235 49.66804793 -6.26096931 46.57421471 -6.29296875 40.63671875 C-6.31230469 39.64478516 -6.33164062 38.65285156 -6.3515625 37.63085938 C-6.38509757 35.55813382 -6.40362096 33.48510453 -6.40625 31.41210938 C-6.57212339 24.65058625 -7.60347719 19.84337366 -12.15234375 14.6796875 C-15.44815891 11.84380054 -18.86941082 10.44950777 -23.21484375 10.2421875 C-28.85314768 10.86866571 -32.29755505 12.45669871 -35.96484375 16.7421875 C-38.59908565 20.27959805 -39.27668392 21.7626706 -39.29037476 26.05584717 C-39.29582809 26.97548248 -39.30128143 27.8951178 -39.30690002 28.84262085 C-39.30846352 30.36056747 -39.30846352 30.36056747 -39.31005859 31.90917969 C-39.31513931 32.97272675 -39.32022003 34.0362738 -39.32545471 35.13204956 C-39.33617546 37.44779378 -39.34478892 39.76354846 -39.35157394 42.07930756 C-39.36333757 45.7441097 -39.38278448 49.40879265 -39.4046936 53.07354736 C-39.46639118 63.49560584 -39.52035297 73.91765306 -39.55371094 84.33984375 C-39.57464963 90.70943548 -39.6099495 97.07881169 -39.65446854 103.44828033 C-39.66863805 105.87712314 -39.67735311 108.3060041 -39.68052292 110.73488617 C-39.68542832 114.1343593 -39.7085786 117.5332602 -39.73583984 120.93261719 C-39.73283371 121.93648468 -39.72982758 122.94035217 -39.72673035 123.97463989 C-39.8100614 130.96771571 -40.7932801 135.37304749 -45.96484375 140.4296875 C-51.20596981 144.1293059 -55.0374962 144.76960877 -61.36328125 144.72265625 C-62.9882251 144.71335083 -62.9882251 144.71335083 -64.64599609 144.70385742 C-65.47309082 144.69588135 -66.30018555 144.68790527 -67.15234375 144.6796875 C-67.24604225 129.74521326 -67.31644739 114.81076191 -67.35959244 99.87605572 C-67.38016348 92.94062627 -67.40817858 86.00538011 -67.45410156 79.07006836 C-67.49843111 72.37217005 -67.52150817 65.67450112 -67.53185272 58.97644997 C-67.53922104 56.42608463 -67.55360949 53.87572922 -67.57526398 51.32544518 C-67.60446708 47.74237283 -67.60829255 44.16007725 -67.60644531 40.5769043 C-67.62082642 39.53176666 -67.63520752 38.48662903 -67.65002441 37.40982056 C-67.58319042 25.3626258 -63.19416314 15.58505797 -55.15234375 6.6796875 C-40.25569919 -6.77243395 -17.66745841 -10.83775125 0 0 Z " fill="#FFFFFF" transform="translate(818.15234375,1411.3203125)"/>
<path d="M0 0 C3.70270651 2.70381252 6.87578616 5.65027072 10 9 C10.6703125 9.71285156 11.340625 10.42570312 12.03125 11.16015625 C20.65487922 21.22714714 21.58472034 32.44050994 21.25 45.25 C21.2298718 46.59242079 21.21163237 47.93487126 21.1953125 49.27734375 C21.1486698 52.51901162 21.08323132 55.75910056 21 59 C18.91676822 59.03217419 16.83339292 59.05514584 14.75 59.07421875 C13.58984375 59.08799561 12.4296875 59.10177246 11.234375 59.1159668 C5.62497558 58.91484476 2.50772623 57.27319104 -1.8125 53.625 C-5.22301778 49.53237866 -6.24068088 46.04234034 -6.23828125 40.76171875 C-6.25439453 39.77623047 -6.27050781 38.79074219 -6.28710938 37.77539062 C-6.30393958 35.72857819 -6.30928227 33.68163678 -6.30273438 31.63476562 C-6.4375571 24.95886614 -7.38986375 20.04075764 -12 15 C-16.78541895 11.58783963 -21.06148493 10.23019249 -27 11 C-32.67549553 13.04317839 -36.29873721 16.59747441 -39 22 C-39.09735218 23.44127101 -39.13337399 24.88691904 -39.13803101 26.33146667 C-39.14348434 27.24124268 -39.14893768 28.15101868 -39.15455627 29.08836365 C-39.15611977 30.5899276 -39.15611977 30.5899276 -39.15771484 32.12182617 C-39.16279556 33.17401337 -39.16787628 34.22620056 -39.17311096 35.31027222 C-39.1838319 37.60145923 -39.19244528 39.89265682 -39.19923019 42.18385887 C-39.21099641 45.81113064 -39.23044454 49.43828211 -39.25234985 53.06550598 C-39.31403492 63.38095084 -39.36798605 73.69638462 -39.40136719 84.01196289 C-39.42232123 90.31672153 -39.4576346 96.62126306 -39.50212479 102.9258976 C-39.51628327 105.32879389 -39.52500687 107.73172862 -39.52817917 110.13466454 C-39.53309173 113.50040738 -39.55626094 116.86557528 -39.58349609 120.23120117 C-39.58048996 121.22212265 -39.57748383 122.21304413 -39.5743866 123.23399353 C-39.6613195 130.47416657 -40.50276828 135.50276828 -45.8125 140.8125 C-51.07560149 144.4244324 -54.90783079 145.08975294 -61.2109375 145.04296875 C-62.83588135 145.03366333 -62.83588135 145.03366333 -64.49365234 145.02416992 C-65.32074707 145.01619385 -66.1478418 145.00821777 -67 145 C-67.0936985 130.06552576 -67.16410364 115.13107441 -67.20724869 100.19636822 C-67.22781973 93.26093877 -67.25583483 86.32569261 -67.30175781 79.39038086 C-67.34608736 72.69248255 -67.36916442 65.99481362 -67.37950897 59.29676247 C-67.38687729 56.74639713 -67.40126574 54.19604172 -67.42292023 51.64575768 C-67.45212333 48.06268533 -67.4559488 44.48038975 -67.45410156 40.8972168 C-67.46848267 39.85207916 -67.48286377 38.80694153 -67.49768066 37.73013306 C-67.43084667 25.6829383 -63.04181939 15.90537047 -55 7 C-40.20005581 -6.36479809 -17.75202355 -10.51880953 0 0 Z " fill="#FFFFFF" transform="translate(368,1411)"/>
<path d="M0 0 C2.5668755 -0.06942586 5.13185562 -0.12012185 7.69921875 -0.16015625 C8.42202026 -0.1816272 9.14482178 -0.20309814 9.88952637 -0.22521973 C15.24128969 -0.28778668 18.45880491 0.57505495 22.51953125 4.00390625 C26.90831705 9.92124014 27.42454275 15.30570579 27.29296875 22.43359375 C27.28872391 23.31153091 27.28447906 24.18946808 27.28010559 25.0940094 C27.2634229 27.8754958 27.22579085 30.65623564 27.1875 33.4375 C27.17243968 35.33267177 27.15875364 37.22785498 27.14648438 39.12304688 C27.1135536 43.74898197 27.06184428 48.37436477 27 53 C28.10230957 52.99009033 29.20461914 52.98018066 30.34033203 52.9699707 C41.06893507 53.05800394 51.20378574 58.68136762 59.01171875 65.76953125 C63.92575893 71.28213821 71 80.44748689 71 88 C67.50028801 88.1173794 64.00109045 88.18763961 60.5 88.25 C59.51773437 88.28351563 58.53546875 88.31703125 57.5234375 88.3515625 C51.12324833 88.43689836 46.32056891 87.7198822 41 84 C38.875 81.75 38.875 81.75 37 79 C35.98889951 77.57637051 34.96737953 76.160104 33.9375 74.75 C33.45152344 74.06421875 32.96554687 73.3784375 32.46484375 72.671875 C31.00413425 70.7207398 31.00413425 70.7207398 28 70 C27.67 96.4 27.34 122.8 27 150 C9.192 150 9.192 150 4.44140625 145.53515625 C0.82445679 141.34441311 -0.12513242 138.89699 -0.12025452 133.48251343 C-0.12162918 132.31019669 -0.12300385 131.13787994 -0.12442017 129.93003845 C-0.12082489 128.63747635 -0.11722961 127.34491425 -0.11352539 126.01318359 C-0.11324343 124.6434479 -0.11340142 123.27371205 -0.1139679 121.90397644 C-0.11425553 118.1789939 -0.10836428 114.45404337 -0.10139394 110.72906828 C-0.09515476 106.83863708 -0.09455615 102.9482052 -0.09336853 99.05776978 C-0.09025688 91.68776648 -0.08204573 84.31777798 -0.07201904 76.94778121 C-0.06085274 68.55853735 -0.05534615 60.1692928 -0.05032361 51.78004336 C-0.03986299 34.52002035 -0.02226676 17.26001174 0 0 Z " fill="#FFFFFF" transform="translate(1026,1406)"/>
</svg>
